<mxfile host="Electron" modified="2023-12-02T20:21:27.756Z" agent="Mozilla/5.0 (Windows NT 10.0; Win64; x64) AppleWebKit/537.36 (KHTML, like Gecko) draw.io/21.6.1 Chrome/112.0.5615.204 Electron/24.6.1 Safari/537.36" etag="SroBLpAMLmCh5cXSEwF4" version="21.6.1" type="device">
  <diagram id="R2lEEEUBdFMjLlhIrx00" name="Page-1">
    <mxGraphModel dx="2268" dy="1920" grid="0" gridSize="10" guides="1" tooltips="1" connect="1" arrows="1" fold="1" page="1" pageScale="1" pageWidth="850" pageHeight="1100" math="0" shadow="0" extFonts="Permanent Marker^https://fonts.googleapis.com/css?family=Permanent+Marker">
      <root>
        <mxCell id="0" />
        <mxCell id="1" parent="0" />
        <mxCell id="YRZ7mdmnsj430YJ_3hSv-1" value="&#xa;Сериал&#xa;" style="swimlane;fontStyle=0;childLayout=stackLayout;horizontal=1;startSize=26;horizontalStack=0;resizeParent=1;resizeParentMax=0;resizeLast=0;collapsible=1;marginBottom=0;align=center;fontSize=14;" parent="1" vertex="1">
          <mxGeometry x="360" y="105" width="160" height="110" as="geometry" />
        </mxCell>
        <mxCell id="YRZ7mdmnsj430YJ_3hSv-37" value="*id&lt;br&gt;Название&lt;br&gt;Количество сезонов&lt;br&gt;Законченность&lt;br&gt;Дата выхода&lt;br&gt;" style="text;html=1;align=center;verticalAlign=middle;resizable=0;points=[];autosize=1;strokeColor=none;fillColor=none;" parent="YRZ7mdmnsj430YJ_3hSv-1" vertex="1">
          <mxGeometry y="26" width="160" height="84" as="geometry" />
        </mxCell>
        <mxCell id="YRZ7mdmnsj430YJ_3hSv-9" value="Актер" style="swimlane;fontStyle=0;childLayout=stackLayout;horizontal=1;startSize=26;horizontalStack=0;resizeParent=1;resizeParentMax=0;resizeLast=0;collapsible=1;marginBottom=0;align=center;fontSize=14;" parent="1" vertex="1">
          <mxGeometry x="-223" y="94" width="160" height="86" as="geometry" />
        </mxCell>
        <mxCell id="YRZ7mdmnsj430YJ_3hSv-38" value="*id&lt;br&gt;ФИО&lt;br&gt;Дата рождения" style="text;html=1;align=center;verticalAlign=middle;resizable=0;points=[];autosize=1;strokeColor=none;fillColor=none;" parent="YRZ7mdmnsj430YJ_3hSv-9" vertex="1">
          <mxGeometry y="26" width="160" height="60" as="geometry" />
        </mxCell>
        <mxCell id="YRZ7mdmnsj430YJ_3hSv-11" value="Сценарист" style="swimlane;fontStyle=0;childLayout=stackLayout;horizontal=1;startSize=26;horizontalStack=0;resizeParent=1;resizeParentMax=0;resizeLast=0;collapsible=1;marginBottom=0;align=center;fontSize=14;" parent="1" vertex="1">
          <mxGeometry x="-223" y="334" width="160" height="86" as="geometry" />
        </mxCell>
        <mxCell id="YRZ7mdmnsj430YJ_3hSv-43" value="*id&lt;br&gt;ФИО&lt;br&gt;Дата рождения" style="text;html=1;align=center;verticalAlign=middle;resizable=0;points=[];autosize=1;strokeColor=none;fillColor=none;" parent="YRZ7mdmnsj430YJ_3hSv-11" vertex="1">
          <mxGeometry y="26" width="160" height="60" as="geometry" />
        </mxCell>
        <mxCell id="YRZ7mdmnsj430YJ_3hSv-12" value="Режиссер" style="swimlane;fontStyle=0;childLayout=stackLayout;horizontal=1;startSize=26;horizontalStack=0;resizeParent=1;resizeParentMax=0;resizeLast=0;collapsible=1;marginBottom=0;align=center;fontSize=14;" parent="1" vertex="1">
          <mxGeometry x="-223" y="214" width="160" height="86" as="geometry" />
        </mxCell>
        <mxCell id="YRZ7mdmnsj430YJ_3hSv-44" value="&lt;span style=&quot;color: rgb(0, 0, 0); font-family: Helvetica; font-size: 12px; font-style: normal; font-variant-ligatures: normal; font-variant-caps: normal; font-weight: 400; letter-spacing: normal; orphans: 2; text-align: center; text-indent: 0px; text-transform: none; widows: 2; word-spacing: 0px; -webkit-text-stroke-width: 0px; background-color: rgb(251, 251, 251); text-decoration-thickness: initial; text-decoration-style: initial; text-decoration-color: initial; float: none; display: inline !important;&quot;&gt;*id&lt;/span&gt;&lt;br style=&quot;border-color: var(--border-color); color: rgb(0, 0, 0); font-family: Helvetica; font-size: 12px; font-style: normal; font-variant-ligatures: normal; font-variant-caps: normal; font-weight: 400; letter-spacing: normal; orphans: 2; text-align: center; text-indent: 0px; text-transform: none; widows: 2; word-spacing: 0px; -webkit-text-stroke-width: 0px; background-color: rgb(251, 251, 251); text-decoration-thickness: initial; text-decoration-style: initial; text-decoration-color: initial;&quot;&gt;&lt;span style=&quot;color: rgb(0, 0, 0); font-family: Helvetica; font-size: 12px; font-style: normal; font-variant-ligatures: normal; font-variant-caps: normal; font-weight: 400; letter-spacing: normal; orphans: 2; text-align: center; text-indent: 0px; text-transform: none; widows: 2; word-spacing: 0px; -webkit-text-stroke-width: 0px; background-color: rgb(251, 251, 251); text-decoration-thickness: initial; text-decoration-style: initial; text-decoration-color: initial; float: none; display: inline !important;&quot;&gt;ФИО&lt;/span&gt;&lt;br style=&quot;border-color: var(--border-color); color: rgb(0, 0, 0); font-family: Helvetica; font-size: 12px; font-style: normal; font-variant-ligatures: normal; font-variant-caps: normal; font-weight: 400; letter-spacing: normal; orphans: 2; text-align: center; text-indent: 0px; text-transform: none; widows: 2; word-spacing: 0px; -webkit-text-stroke-width: 0px; background-color: rgb(251, 251, 251); text-decoration-thickness: initial; text-decoration-style: initial; text-decoration-color: initial;&quot;&gt;&lt;span style=&quot;color: rgb(0, 0, 0); font-family: Helvetica; font-size: 12px; font-style: normal; font-variant-ligatures: normal; font-variant-caps: normal; font-weight: 400; letter-spacing: normal; orphans: 2; text-align: center; text-indent: 0px; text-transform: none; widows: 2; word-spacing: 0px; -webkit-text-stroke-width: 0px; background-color: rgb(251, 251, 251); text-decoration-thickness: initial; text-decoration-style: initial; text-decoration-color: initial; float: none; display: inline !important;&quot;&gt;Дата рождения&lt;/span&gt;" style="text;html=1;align=center;verticalAlign=middle;resizable=0;points=[];autosize=1;strokeColor=none;fillColor=none;" parent="YRZ7mdmnsj430YJ_3hSv-12" vertex="1">
          <mxGeometry y="26" width="160" height="60" as="geometry" />
        </mxCell>
        <mxCell id="YRZ7mdmnsj430YJ_3hSv-13" value="Серия" style="swimlane;fontStyle=0;childLayout=stackLayout;horizontal=1;startSize=26;horizontalStack=0;resizeParent=1;resizeParentMax=0;resizeLast=0;collapsible=1;marginBottom=0;align=center;fontSize=14;" parent="1" vertex="1">
          <mxGeometry x="889" y="332" width="172" height="81" as="geometry" />
        </mxCell>
        <mxCell id="YRZ7mdmnsj430YJ_3hSv-46" value="*Порядковый номер&lt;br&gt;*Порядковый номер Сезона&lt;br&gt;*id Сериала" style="text;html=1;align=center;verticalAlign=middle;resizable=0;points=[];autosize=1;strokeColor=none;fillColor=none;" parent="YRZ7mdmnsj430YJ_3hSv-13" vertex="1">
          <mxGeometry y="26" width="172" height="55" as="geometry" />
        </mxCell>
        <mxCell id="YRZ7mdmnsj430YJ_3hSv-14" value="Сезон" style="swimlane;fontStyle=0;childLayout=stackLayout;horizontal=1;startSize=26;horizontalStack=0;resizeParent=1;resizeParentMax=0;resizeLast=0;collapsible=1;marginBottom=0;align=center;fontSize=14;" parent="1" vertex="1">
          <mxGeometry x="600" y="320" width="160" height="81" as="geometry" />
        </mxCell>
        <mxCell id="YRZ7mdmnsj430YJ_3hSv-39" value="Количество серий&lt;br&gt;*Порядковый номер&lt;br&gt;*id Сериала" style="text;html=1;align=center;verticalAlign=middle;resizable=0;points=[];autosize=1;strokeColor=none;fillColor=none;" parent="YRZ7mdmnsj430YJ_3hSv-14" vertex="1">
          <mxGeometry y="26" width="160" height="55" as="geometry" />
        </mxCell>
        <mxCell id="YRZ7mdmnsj430YJ_3hSv-30" value="Пользователь" style="swimlane;fontStyle=0;childLayout=stackLayout;horizontal=1;startSize=26;horizontalStack=0;resizeParent=1;resizeParentMax=0;resizeLast=0;collapsible=1;marginBottom=0;align=center;fontSize=14;" parent="1" vertex="1">
          <mxGeometry x="894" y="-200" width="160" height="67" as="geometry" />
        </mxCell>
        <mxCell id="YRZ7mdmnsj430YJ_3hSv-42" value="*id&lt;br&gt;Логин" style="text;html=1;align=center;verticalAlign=middle;resizable=0;points=[];autosize=1;strokeColor=none;fillColor=none;" parent="YRZ7mdmnsj430YJ_3hSv-30" vertex="1">
          <mxGeometry y="26" width="160" height="41" as="geometry" />
        </mxCell>
        <mxCell id="YRZ7mdmnsj430YJ_3hSv-31" value="Жанр" style="swimlane;fontStyle=0;childLayout=stackLayout;horizontal=1;startSize=26;horizontalStack=0;resizeParent=1;resizeParentMax=0;resizeLast=0;collapsible=1;marginBottom=0;align=center;fontSize=14;" parent="1" vertex="1">
          <mxGeometry x="-223" y="2.5" width="160" height="67" as="geometry" />
        </mxCell>
        <mxCell id="YRZ7mdmnsj430YJ_3hSv-45" value="*id&lt;br&gt;Название" style="text;html=1;align=center;verticalAlign=middle;resizable=0;points=[];autosize=1;strokeColor=none;fillColor=none;" parent="YRZ7mdmnsj430YJ_3hSv-31" vertex="1">
          <mxGeometry y="26" width="160" height="41" as="geometry" />
        </mxCell>
        <mxCell id="OAXO2IjgLf69AnIWIhld-14" value="Рейтинг сериала" style="swimlane;fontStyle=0;childLayout=stackLayout;horizontal=1;startSize=26;horizontalStack=0;resizeParent=1;resizeParentMax=0;resizeLast=0;collapsible=1;marginBottom=0;align=center;fontSize=14;" parent="1" vertex="1">
          <mxGeometry x="360" y="-212.5" width="160" height="81" as="geometry" />
        </mxCell>
        <mxCell id="OAXO2IjgLf69AnIWIhld-16" value="Оценка&lt;br&gt;*id Пользователя&lt;br&gt;*id Сериала" style="text;html=1;align=center;verticalAlign=middle;resizable=0;points=[];autosize=1;strokeColor=none;fillColor=none;" parent="OAXO2IjgLf69AnIWIhld-14" vertex="1">
          <mxGeometry y="26" width="160" height="55" as="geometry" />
        </mxCell>
        <mxCell id="OMJBPlbFbg1FlaaKBO36-4" value="" style="endArrow=classic;html=1;rounded=0;entryX=0;entryY=0.367;entryDx=0;entryDy=0;entryPerimeter=0;exitX=0.994;exitY=0.482;exitDx=0;exitDy=0;exitPerimeter=0;" parent="1" source="OAXO2IjgLf69AnIWIhld-16" target="YRZ7mdmnsj430YJ_3hSv-42" edge="1">
          <mxGeometry width="50" height="50" relative="1" as="geometry">
            <mxPoint x="457" y="180" as="sourcePoint" />
            <mxPoint x="507" y="130" as="targetPoint" />
          </mxGeometry>
        </mxCell>
        <mxCell id="OMJBPlbFbg1FlaaKBO36-7" value="" style="endArrow=classic;html=1;rounded=0;edgeStyle=elbowEdgeStyle;exitX=1;exitY=0.827;exitDx=0;exitDy=0;exitPerimeter=0;" parent="1" source="OAXO2IjgLf69AnIWIhld-16" edge="1">
          <mxGeometry width="50" height="50" relative="1" as="geometry">
            <mxPoint x="541" y="-140" as="sourcePoint" />
            <mxPoint x="518" y="142" as="targetPoint" />
            <Array as="points">
              <mxPoint x="559" y="2" />
            </Array>
          </mxGeometry>
        </mxCell>
        <mxCell id="OMJBPlbFbg1FlaaKBO36-8" value="" style="endArrow=classic;html=1;rounded=0;edgeStyle=elbowEdgeStyle;exitX=0.006;exitY=0.564;exitDx=0;exitDy=0;exitPerimeter=0;" parent="1" source="YRZ7mdmnsj430YJ_3hSv-46" edge="1">
          <mxGeometry width="50" height="50" relative="1" as="geometry">
            <mxPoint x="885" y="389" as="sourcePoint" />
            <mxPoint x="761" y="374" as="targetPoint" />
            <Array as="points">
              <mxPoint x="837" y="386" />
            </Array>
          </mxGeometry>
        </mxCell>
        <mxCell id="OMJBPlbFbg1FlaaKBO36-9" value="" style="endArrow=classic;html=1;rounded=0;edgeStyle=elbowEdgeStyle;exitX=-0.006;exitY=0.818;exitDx=0;exitDy=0;exitPerimeter=0;" parent="1" source="YRZ7mdmnsj430YJ_3hSv-39" edge="1">
          <mxGeometry width="50" height="50" relative="1" as="geometry">
            <mxPoint x="573" y="288" as="sourcePoint" />
            <mxPoint x="518" y="142" as="targetPoint" />
          </mxGeometry>
        </mxCell>
        <mxCell id="OMJBPlbFbg1FlaaKBO36-10" value="Сериал-Жанр" style="swimlane;fontStyle=0;childLayout=stackLayout;horizontal=1;startSize=26;horizontalStack=0;resizeParent=1;resizeParentMax=0;resizeLast=0;collapsible=1;marginBottom=0;align=center;fontSize=14;" parent="1" vertex="1">
          <mxGeometry x="78" y="-4" width="160" height="69" as="geometry" />
        </mxCell>
        <mxCell id="OMJBPlbFbg1FlaaKBO36-11" value="*id Сериала&lt;br&gt;*id Жанра" style="text;strokeColor=none;fillColor=none;spacingLeft=4;spacingRight=4;overflow=hidden;rotatable=0;points=[[0,0.5],[1,0.5]];portConstraint=eastwest;fontSize=12;whiteSpace=wrap;html=1;" parent="OMJBPlbFbg1FlaaKBO36-10" vertex="1">
          <mxGeometry y="26" width="160" height="43" as="geometry" />
        </mxCell>
        <mxCell id="OMJBPlbFbg1FlaaKBO36-14" value="Актер-Сериал" style="swimlane;fontStyle=0;childLayout=stackLayout;horizontal=1;startSize=26;horizontalStack=0;resizeParent=1;resizeParentMax=0;resizeLast=0;collapsible=1;marginBottom=0;align=center;fontSize=14;" parent="1" vertex="1">
          <mxGeometry x="78" y="98.5" width="160" height="69" as="geometry" />
        </mxCell>
        <mxCell id="OMJBPlbFbg1FlaaKBO36-15" value="*id Сериала&lt;br&gt;*id Актера" style="text;strokeColor=none;fillColor=none;spacingLeft=4;spacingRight=4;overflow=hidden;rotatable=0;points=[[0,0.5],[1,0.5]];portConstraint=eastwest;fontSize=12;whiteSpace=wrap;html=1;" parent="OMJBPlbFbg1FlaaKBO36-14" vertex="1">
          <mxGeometry y="26" width="160" height="43" as="geometry" />
        </mxCell>
        <mxCell id="OMJBPlbFbg1FlaaKBO36-16" value="Сериал-Режиссер" style="swimlane;fontStyle=0;childLayout=stackLayout;horizontal=1;startSize=26;horizontalStack=0;resizeParent=1;resizeParentMax=0;resizeLast=0;collapsible=1;marginBottom=0;align=center;fontSize=14;" parent="1" vertex="1">
          <mxGeometry x="78" y="210" width="160" height="69" as="geometry" />
        </mxCell>
        <mxCell id="OMJBPlbFbg1FlaaKBO36-17" value="*id Сериала&lt;br&gt;*id Режиссера" style="text;strokeColor=none;fillColor=none;spacingLeft=4;spacingRight=4;overflow=hidden;rotatable=0;points=[[0,0.5],[1,0.5]];portConstraint=eastwest;fontSize=12;whiteSpace=wrap;html=1;" parent="OMJBPlbFbg1FlaaKBO36-16" vertex="1">
          <mxGeometry y="26" width="160" height="43" as="geometry" />
        </mxCell>
        <mxCell id="OMJBPlbFbg1FlaaKBO36-18" value="Сериал-Сценарист" style="swimlane;fontStyle=0;childLayout=stackLayout;horizontal=1;startSize=26;horizontalStack=0;resizeParent=1;resizeParentMax=0;resizeLast=0;collapsible=1;marginBottom=0;align=center;fontSize=14;" parent="1" vertex="1">
          <mxGeometry x="78" y="330" width="160" height="69" as="geometry" />
        </mxCell>
        <mxCell id="OMJBPlbFbg1FlaaKBO36-19" value="*id Сериала&lt;br&gt;*id Сценариста" style="text;strokeColor=none;fillColor=none;spacingLeft=4;spacingRight=4;overflow=hidden;rotatable=0;points=[[0,0.5],[1,0.5]];portConstraint=eastwest;fontSize=12;whiteSpace=wrap;html=1;" parent="OMJBPlbFbg1FlaaKBO36-18" vertex="1">
          <mxGeometry y="26" width="160" height="43" as="geometry" />
        </mxCell>
        <mxCell id="OMJBPlbFbg1FlaaKBO36-20" value="" style="endArrow=classic;html=1;rounded=0;edgeStyle=elbowEdgeStyle;exitX=1.006;exitY=0.279;exitDx=0;exitDy=0;exitPerimeter=0;" parent="1" source="OMJBPlbFbg1FlaaKBO36-11" edge="1">
          <mxGeometry width="50" height="50" relative="1" as="geometry">
            <mxPoint x="530" y="-131" as="sourcePoint" />
            <mxPoint x="362" y="144" as="targetPoint" />
            <Array as="points">
              <mxPoint x="309" y="87" />
            </Array>
          </mxGeometry>
        </mxCell>
        <mxCell id="OMJBPlbFbg1FlaaKBO36-21" value="" style="endArrow=classic;html=1;rounded=0;edgeStyle=elbowEdgeStyle;exitX=1.006;exitY=0.244;exitDx=0;exitDy=0;exitPerimeter=0;" parent="1" source="OMJBPlbFbg1FlaaKBO36-15" edge="1">
          <mxGeometry width="50" height="50" relative="1" as="geometry">
            <mxPoint x="239" y="34" as="sourcePoint" />
            <mxPoint x="362" y="144" as="targetPoint" />
            <Array as="points">
              <mxPoint x="309" y="87" />
            </Array>
          </mxGeometry>
        </mxCell>
        <mxCell id="OMJBPlbFbg1FlaaKBO36-24" value="" style="endArrow=classic;html=1;rounded=0;edgeStyle=elbowEdgeStyle;exitX=0.994;exitY=0.233;exitDx=0;exitDy=0;exitPerimeter=0;" parent="1" source="OMJBPlbFbg1FlaaKBO36-17" edge="1">
          <mxGeometry width="50" height="50" relative="1" as="geometry">
            <mxPoint x="239" y="135" as="sourcePoint" />
            <mxPoint x="362" y="144" as="targetPoint" />
            <Array as="points">
              <mxPoint x="309" y="87" />
            </Array>
          </mxGeometry>
        </mxCell>
        <mxCell id="OMJBPlbFbg1FlaaKBO36-25" value="" style="endArrow=classic;html=1;rounded=0;edgeStyle=elbowEdgeStyle;exitX=1.006;exitY=0.326;exitDx=0;exitDy=0;exitPerimeter=0;" parent="1" source="OMJBPlbFbg1FlaaKBO36-19" edge="1">
          <mxGeometry width="50" height="50" relative="1" as="geometry">
            <mxPoint x="237" y="246" as="sourcePoint" />
            <mxPoint x="362" y="144" as="targetPoint" />
            <Array as="points">
              <mxPoint x="309" y="87" />
            </Array>
          </mxGeometry>
        </mxCell>
        <mxCell id="OMJBPlbFbg1FlaaKBO36-26" value="" style="endArrow=classic;html=1;rounded=0;exitX=-0.006;exitY=0.674;exitDx=0;exitDy=0;exitPerimeter=0;entryX=0.994;entryY=0.5;entryDx=0;entryDy=0;entryPerimeter=0;edgeStyle=elbowEdgeStyle;" parent="1" source="OMJBPlbFbg1FlaaKBO36-11" target="YRZ7mdmnsj430YJ_3hSv-45" edge="1">
          <mxGeometry width="50" height="50" relative="1" as="geometry">
            <mxPoint x="139" y="248" as="sourcePoint" />
            <mxPoint y="48" as="targetPoint" />
          </mxGeometry>
        </mxCell>
        <mxCell id="OMJBPlbFbg1FlaaKBO36-27" value="" style="endArrow=classic;html=1;rounded=0;edgeStyle=elbowEdgeStyle;exitX=-0.006;exitY=0.686;exitDx=0;exitDy=0;exitPerimeter=0;" parent="1" source="OMJBPlbFbg1FlaaKBO36-15" edge="1">
          <mxGeometry width="50" height="50" relative="1" as="geometry">
            <mxPoint x="75" y="154" as="sourcePoint" />
            <mxPoint x="-65" y="132" as="targetPoint" />
          </mxGeometry>
        </mxCell>
        <mxCell id="OMJBPlbFbg1FlaaKBO36-28" value="" style="endArrow=classic;html=1;rounded=0;edgeStyle=elbowEdgeStyle;exitX=0;exitY=0.674;exitDx=0;exitDy=0;exitPerimeter=0;" parent="1" source="OMJBPlbFbg1FlaaKBO36-17" edge="1">
          <mxGeometry width="50" height="50" relative="1" as="geometry">
            <mxPoint x="75" y="265" as="sourcePoint" />
            <mxPoint x="-65" y="254" as="targetPoint" />
          </mxGeometry>
        </mxCell>
        <mxCell id="OMJBPlbFbg1FlaaKBO36-29" value="" style="endArrow=classic;html=1;rounded=0;edgeStyle=elbowEdgeStyle;exitX=0;exitY=0.674;exitDx=0;exitDy=0;exitPerimeter=0;" parent="1" source="OMJBPlbFbg1FlaaKBO36-19" edge="1">
          <mxGeometry width="50" height="50" relative="1" as="geometry">
            <mxPoint x="75" y="383" as="sourcePoint" />
            <mxPoint x="-65" y="373" as="targetPoint" />
          </mxGeometry>
        </mxCell>
        <mxCell id="gYlVT3Qvh10P3fqRr9ZQ-1" value="" style="endArrow=classic;html=1;rounded=0;edgeStyle=elbowEdgeStyle;exitX=0;exitY=0.818;exitDx=0;exitDy=0;exitPerimeter=0;entryX=1;entryY=0.8;entryDx=0;entryDy=0;entryPerimeter=0;" parent="1" source="YRZ7mdmnsj430YJ_3hSv-46" target="YRZ7mdmnsj430YJ_3hSv-39" edge="1">
          <mxGeometry width="50" height="50" relative="1" as="geometry">
            <mxPoint x="889" y="396" as="sourcePoint" />
            <mxPoint x="761" y="374" as="targetPoint" />
          </mxGeometry>
        </mxCell>
      </root>
    </mxGraphModel>
  </diagram>
</mxfile>
